# xmcd
#
# Track frame offsets: 
#        183
#        18380
#        38735
#        64428
#
# Disc length: 1395 seconds
#
# Revision: 1
# Processed by: cddbd v1.5.2PL0 Copyright (c) Steve Scherf et al.
# Submitted via: ExactAudioCopyFreeDBPlugin 1.0
#
DISCID=2f057104
DTITLE=Portrait - I Can Call You [CDS)
DYEAR=1995
DGENRE=R&B
TTITLE0=I Can Call You (Radio Edit)
TTITLE1=I Can Call You (Chris and Ray's Radio Mix)
TTITLE2=I Can Call You (Portrait's Funk As They See It Mix)
TTITLE3=Dip And Dive
EXTD=
EXTT0=
EXTT1=
EXTT2=
EXTT3=
PLAYORDER=
